<svg width="206" height="41" viewBox="0 0 206 41" fill="none" xmlns="http://www.w3.org/2000/svg">
<path d="M0.93491 1.22306H30.6858V8.70295H9.2584V17.0827H28.6611V24.5626H9.2584V39.8598H0.93491V1.22306ZM50.639 40.5347C42.2031 40.5347 34.7232 33.9546 34.7232 25.2937C34.7232 16.5765 42.1468 10.1089 50.639 10.1089C59.1312 10.1089 66.4424 16.6328 66.4424 25.2937C66.4424 33.8984 59.075 40.5347 50.639 40.5347ZM42.5967 25.2937C42.5967 29.6804 46.1398 33.6172 50.639 33.6172C55.1382 33.6172 58.6251 29.6804 58.6251 25.2937C58.6251 20.907 55.1382 17.0264 50.639 17.0264C46.1398 17.0264 42.5967 20.8507 42.5967 25.2937ZM86.2832 40.5347C77.8472 40.5347 70.3673 33.9546 70.3673 25.2937C70.3673 16.5765 77.791 10.1089 86.2832 10.1089C94.7754 10.1089 102.087 16.6328 102.087 25.2937C102.087 33.8984 94.7192 40.5347 86.2832 40.5347ZM78.2409 25.2937C78.2409 29.6804 81.784 33.6172 86.2832 33.6172C90.7824 33.6172 94.2692 29.6804 94.2692 25.2937C94.2692 20.907 90.7824 17.0264 86.2832 17.0264C81.784 17.0264 78.2409 20.8507 78.2409 25.2937ZM129.351 14.9456V0.548179H137.562V39.8598H129.351V35.6981C126.933 38.9037 123.615 40.5347 119.565 40.5347C110.904 40.5347 106.18 33.336 106.18 25.2937C106.18 17.2514 110.961 10.1089 119.565 10.1089C123.615 10.1089 126.933 11.7399 129.351 14.9456ZM121.927 33.6172C126.708 33.6172 129.351 29.7366 129.351 25.2937C129.351 20.7945 126.708 17.0264 121.927 17.0264C117.035 17.0264 114.166 20.6258 114.166 25.2937C114.166 29.9616 117.091 33.6172 121.927 33.6172ZM154.78 40.5347C150.056 40.5347 144.545 38.1164 141.845 34.1233L147.357 28.7243C148.538 31.1989 151.181 32.9985 153.937 32.9985C157.592 32.9985 159.786 30.0741 159.786 26.5872V1.22306H168.109V27.2621C168.109 35.0794 162.598 40.5347 154.78 40.5347ZM190.263 40.5347C183.796 40.5347 177.89 38.5663 173.11 34.1233L177.89 28.4431C181.49 31.5926 185.764 33.5047 190.601 33.5047C193.413 33.5047 196.899 32.6049 196.899 29.1742C196.899 21.8631 174.797 26.8684 174.797 12.5835C174.797 4.48497 181.715 0.548179 189.082 0.548179C194.706 0.548179 199.88 2.17914 204.211 5.89096L199.88 11.8524C196.731 9.32159 192.963 7.57816 188.857 7.57816C186.27 7.57816 183.177 8.70295 183.177 11.7399C183.177 19.3323 205.279 14.2145 205.279 28.2744C205.279 37.0478 198.08 40.5347 190.263 40.5347Z" fill="#C33437"/>
</svg>
